<?xml version="1.0" ?>
<!DOCTYPE svg PUBLIC '-//W3C//DTD SVG 1.1//EN' 'http://www.w3.org/Graphics/SVG/1.1/DTD/svg11.dtd'><svg height="512px"
	style="enable-background:new 0 0 512 512;" version="1.1" viewBox="0 0 512 512" width="512px" xml:space="preserve"
	xmlns="http://www.w3.org/2000/svg" xmlns:xlink="http://www.w3.org/1999/xlink">
	<g id="_x35_67_x2C__Detective_x2C__hacker_x2C__incognito_x2C__spy_x2C__thief">
		<g>
			<path
				d="M349.745,184.244c-1.228-5.074-2.946-9.957-5.129-14.596    c-8.785,3.084-19.345,5.621-31.075,7.395c-12.551,1.883-26.548,2.945-41.253,2.945c-14.024,0-27.393-0.954-39.534-2.7    c-11.323-1.638-21.554-3.929-30.257-6.767c-2.019,4.502-3.656,9.25-4.829,14.188c-1.337,5.784-2.073,11.787-2.073,17.98    c0,21.498,8.676,40.979,22.727,55.111l0.164,0.164c14.16,14.133,33.694,22.891,55.275,22.891c21.582,0,41.116-8.758,55.276-22.891    c14.133-14.16,22.891-33.695,22.891-55.275C351.928,196.305,351.164,190.111,349.745,184.244 M223.888,319.844l-2.429,47.117    h101.713l-1.638-48.264l-48.811,43.654c-1.281,1.227-3.327,1.254-4.638,0L223.888,319.844z M307.211,280.992    c-10.259,4.419-21.582,6.848-33.45,6.848c-12.822,0-24.991-2.838-35.904-7.912v44.035l32.631,31.376l36.724-32.821V280.992z     M325.709,121.084c-15.252-3.328-33.613-5.293-53.421-5.293c-19.753,0-38.088,1.938-53.339,5.293l-2.1,9.358h110.879l-1.854-8.513    L325.709,121.084z M200.915,162.746c0.328,0.027,0.628,0.082,0.956,0.191c8.839,3.137,19.698,5.701,31.867,7.447    c11.786,1.691,24.826,2.62,38.551,2.62c14.351,0,27.992-1.037,40.216-2.894c12.632-1.881,23.736-4.664,32.604-8.074    c0.327-0.11,0.654-0.191,0.982-0.219c12.713-4.993,20.354-11.05,20.354-17.352c0-7.23-10.014-14.133-26.221-19.453    c-2.318-0.765-4.746-1.502-7.283-2.156l2.209,10.23c0.383,1.774-0.736,3.575-2.537,3.957l-0.736,0.109H212.701    c-1.855,0-3.356-1.501-3.356-3.355c0-0.355,0.054-0.711,0.164-1.037l2.21-9.932c-2.564,0.682-5.02,1.419-7.366,2.184    c-16.207,5.32-26.22,12.223-26.22,19.453C178.133,151.178,186.754,157.59,200.915,162.746z M320.553,203.697h-29.249l8.322,19.809    h20.927V203.697z M286.257,197.014l37.651-0.027c1.855,0,3.355,1.501,3.355,3.355v26.52c0,1.828-1.5,3.355-3.355,3.355h-26.492    c-1.5,0-2.783-1.008-3.22-2.373l-11.022-26.191c-0.709-1.719,0.082-3.656,1.801-4.394    C285.384,197.096,285.82,197.014,286.257,197.014z M220.667,196.986h37.652c0.436,0.027,0.873,0.109,1.281,0.272    c1.719,0.737,2.511,2.675,1.801,4.394l-11.022,26.191c-0.436,1.365-1.719,2.373-3.219,2.373h-26.493    c-1.854,0-3.356-1.527-3.356-3.355v-26.52C217.312,198.487,218.813,196.986,220.667,196.986z M253.272,203.697h-29.249v19.809    h20.926L253.272,203.697z M401.885,314.795h-64.28l64.28,28.021V314.795z M247.133,85.398c-1.855,0-3.356-1.502-3.356-3.356    c0-1.855,1.5-3.356,3.356-3.356h69.326l-12.741-52.629l-63.324-0.055c-6.902,30.066-12.768,56.395-19.208,85.097l-0.627,2.782    c15.087-3.027,32.794-4.802,51.729-4.802c18.989,0,36.778,1.774,51.866,4.857c-1.747-8.185-3.902-18.171-6.193-28.538H247.133z     M327.646,404.558c1.5,1.037,1.883,3.11,0.846,4.639c-1.064,1.528-3.138,1.909-4.666,0.847l-51.538-35.66l-51.593,35.66    c-1.5,1.063-3.574,0.682-4.638-0.847c-1.037-1.528-0.655-3.602,0.846-4.639l44.663-30.884H217.94c-1.855,0-3.356-1.5-3.356-3.356    l2.728-52.739l-74.51,32.468l-0.956,0.437l-0.409,0.164l-18.989,8.268v82.313h43.025v-55.712c0-1.855,1.5-3.356,3.356-3.356    c1.855,0,3.356,1.501,3.356,3.356v55.712h200.205v-55.712c0-1.855,1.501-3.356,3.355-3.356c1.855,0,3.356,1.501,3.356,3.356    v55.712h42.999v-82.313l-17.925-7.804c-0.165-0.055-0.356-0.136-0.52-0.246l-13.668-5.948l-61.798-26.928l1.773,52.221    c0.055,1.854-1.392,3.41-3.246,3.465h-43.735L327.646,404.558z M91.945,465.591c-1.855,0-3.356-1.5-3.356-3.355    s1.5-3.356,3.356-3.356h247.787c1.855,0,3.356,1.501,3.356,3.356s-1.501,3.355-3.356,3.355H91.945z M224.924,485.999    c-1.855,0-3.356-1.501-3.356-3.356c0-1.827,1.501-3.355,3.356-3.355h191.72c1.829,0,3.329,1.528,3.329,3.355    c0,1.855-1.5,3.356-3.329,3.356H224.924z M436.26,485.999c-1.854,0-3.354-1.501-3.354-3.356c0-1.827,1.5-3.355,3.354-3.355h23.956    c1.855,0,3.355,1.528,3.355,3.355c0,1.855-1.5,3.356-3.355,3.356H436.26z M51.784,485.398c-1.855,0-3.356-1.5-3.356-3.355    s1.5-3.356,3.356-3.356h90.826c1.855,0,3.356,1.501,3.356,3.356s-1.5,3.355-3.356,3.355H51.784z M204.816,315.26l-61.114-0.219    v27.284L204.816,315.26z"
				style="fill-rule:evenodd;clip-rule:evenodd;" />
		</g>
	</g>
	<g id="Layer_1" />
</svg>